<svg version="1.2" xmlns="http://www.w3.org/2000/svg" viewBox="0 0 575 575" width="575" height="575"><style>.a{fill:#0c5697}.b{fill:#eb072c}</style><path class="a" d="m231 1.2c-47.7 10.1-89.2 29.5-125.5 58.5-52.5 42-90.1 103.3-103.1 168.3-2.1 10.6-2.4 13.4-1.5 16.8 1.4 5.1 6 9.8 10.9 11.2 2.1 0.5 14.4 1 27.8 1h24.1l0.6-10.4c0.9-14.4 3.3-20.3 11.1-28.2 6.7-6.7 12.7-9.6 23.8-11.4 3.7-0.6 27.5-1 57.6-1h51.2v-58.8c0-32.4 0.4-61.3 1-64.5 2.1-12.8 10.5-24.2 21.8-29.5 4.8-2.3 7.4-2.8 16-3l10.2-0.4v-19c0-17.5-0.2-19.3-2.1-22.8-4-7.2-11.8-9.4-23.9-6.8z"/><path class="a" d="m326 2.2c-7.2 5-7.5 5.8-7.8 27.8l-0.3 19.8 10.8 0.4c10 0.3 11.3 0.6 17.1 3.7 7.9 4.3 15.3 12.3 18.4 19.9l2.3 5.7 0.3 63.2 0.3 63.3h51.2c28.3 0 54.3 0.5 58.2 1 14 2 25.2 10 30.8 21.9 2.7 5.6 3.1 7.9 3.5 17.3l0.5 10.8h25.1c24.1 0 25.4-0.1 29.6-2.3 6.4-3.1 9.2-8.4 8.7-15.7-0.7-8.3-5.3-27.6-10.1-42.3-26.3-80.5-87-146.2-165.1-178.6-21-8.8-55-18.1-65.9-18.1-2.8 0-5.4 0.8-7.6 2.2z"/><path class="b" d="m238.5 68.9c-2.2 1-5.2 3.1-6.7 4.7-6 6.4-5.8 3.9-5.8 80.4v70h-62.9c-67.4 0-67 0-74.3 5.1-5.8 4.2-6.8 8.2-6.8 28.6v18.3h97 97v-104.5-104.5h-16.7c-14.2 0-17.4 0.3-20.8 1.9z"/><path class="b" d="m299 171.5v104.5h97 97v-18.4c0-10.7-0.5-19.7-1.1-21.3-1.4-3.8-4.6-7.1-9.4-9.6-3.9-2.2-4.9-2.2-68.5-2.7l-64.5-0.5-0.5-71.6-0.5-71.5-2.7-4.1c-1.7-2.6-4.5-5-7.9-6.7-5.1-2.5-6-2.6-22.1-2.6h-16.8z"/><path class="b" d="m82 317c0 19.7 0.6 22.4 5.6 27.2 6.9 6.5 4.5 6.3 74.6 6.6l63.8 0.3 0.2 71.3 0.3 71.2 2.7 4.2c1.5 2.2 4.8 5.3 7.4 6.8 4.6 2.7 5 2.7 21.8 2.8l17.1 0.1 0.3-104.3 0.2-104.2h-97-97z"/><path class="b" d="m299 402.9c0 82.2 0.3 104 1.3 104.3 0.6 0.3 8.4 0.4 17.2 0.3 17.3-0.2 21.2-1.2 26.1-6.7 5.6-6.1 5.4-2.8 5.4-79.2v-70.5l63.8-0.3c63.2-0.3 63.7-0.3 68.2-2.5 5.8-2.8 7.3-4.1 9.9-8.3 1.9-3.2 2.1-4.9 2.1-22.3v-18.7h-97-97z"/><path class="a" d="m7.9 320.3c-4.9 3.2-8.2 10-7.5 15.6 1.3 9.6 6 28.5 11 43.6 14.6 43.9 37 80.1 70.5 113.6 35 34.9 72.1 57.4 120.1 72.8 7.7 2.4 29.6 7.7 36.1 8.6 6 0.9 12.6-1.9 16-6.6 2.3-3.3 2.4-4.1 2.7-23l0.3-19.6-9.9-0.5c-12-0.6-18.6-3.3-26.5-10.7-6.3-6-10.4-13.5-11.7-21.7-0.6-3.3-1-31.5-1-65.2v-59.2h-54.3c-60 0-61.2-0.1-71.6-6.3-12.2-7.3-18-19.7-18.1-38.5v-5.2h-26.4c-25.6 0-26.4 0.1-29.7 2.3z"/><path class="a" d="m510.8 328.2c-0.6 12.6-3 19.6-9.3 26.5-2.3 2.7-6.5 6.1-9.2 7.6-10.3 5.6-11.9 5.7-71 5.7h-54.2l-0.3 63.7-0.3 63.8-3.2 6.7c-4 8.5-10.6 15.1-19 19-5.6 2.6-8.1 3.2-16.4 3.6l-9.9 0.5v18.1c0 20.6 1.1 24.9 7.2 28.6 5.3 3.2 8.6 3.3 21.6 0.6 100.9-20.8 183.1-93.5 216.6-191.6 5.9-17.1 10.9-38.1 11-46.2 0.1-7.4-1.4-10.5-7.4-14.6-3.2-2.1-4-2.2-29.5-2.2h-26.3z"/></svg>